<svg width="28" height="31" viewBox="0 0 28 31" fill="none" xmlns="http://www.w3.org/2000/svg">
<path d="M4 11C4 5.47715 8.47715 1 14 1C19.5228 1 24 5.47715 24 11C24 16.5228 19.5228 21 14 21C8.47715 21 4 16.5228 4 11Z" fill="black" stroke="black" stroke-width="1.5"/>
<path d="M13.9883 18.4678V18.4356L13.6765 18.4201C11.9791 18.3357 10.4951 17.7553 9.19094 16.666C8.98111 16.4907 8.58243 16.0967 8.3838 15.8684C7.99276 15.4188 7.62964 14.8789 7.36581 14.3548C6.62717 12.8874 6.39573 11.2993 6.68311 9.66988C6.81072 8.94629 7.03386 8.29344 7.39012 7.60123C7.80199 6.80098 8.28457 6.16556 8.94693 5.55138C9.98411 4.58965 11.2879 3.93882 12.6787 3.68855C13.0235 3.62649 13.3366 3.59443 13.7881 3.57496C13.7881 3.57496 13.9883 3.56631 13.9883 3.5L14.3 3.50962C14.4715 3.51491 14.6265 3.52084 14.6446 3.52275C14.6626 3.52469 14.7217 3.53051 14.7758 3.53567C14.83 3.54083 14.9363 3.55412 15.0121 3.56518C15.0879 3.57624 15.1824 3.59006 15.2221 3.59585C15.9917 3.70808 16.904 4.02371 17.6373 4.43145C18.2849 4.79157 18.7742 5.16183 19.3116 5.69836C19.8491 6.23491 20.2199 6.72343 20.5806 7.37001C20.9891 8.10235 21.3024 9.00482 21.4177 9.78127C21.4236 9.8209 21.4352 9.89758 21.4434 9.95163C21.4653 10.0948 21.4823 10.253 21.4932 10.4168C21.5027 10.5596 21.502 11.579 21.4923 11.6421C21.4895 11.6602 21.483 11.7191 21.4778 11.7732C21.4726 11.8272 21.4593 11.9334 21.4482 12.0091C21.4372 12.0848 21.4233 12.1791 21.4175 12.2187C21.3051 12.9871 20.989 13.8979 20.5806 14.63C20.2199 15.2765 19.8491 15.7651 19.3116 16.3016C18.7742 16.8382 18.2849 17.2084 17.6373 17.5685C16.904 17.9763 15.9917 18.2919 15.2221 18.4042C15.1824 18.4099 15.0879 18.4238 15.0121 18.4348C14.9363 18.4459 14.83 18.4592 14.7758 18.4643C14.7217 18.4695 14.6626 18.4753 14.6446 18.4772C14.6265 18.4792 14.4715 18.4851 14.3 18.4904L13.9883 18.5V18.4678ZM14.4214 18.417C15.1188 18.3776 15.8766 18.2216 16.5343 17.9819C17.9499 17.4662 19.1509 16.5581 20.0575 15.318C20.3097 14.9729 20.6168 14.4372 20.7996 14.0235C21.0938 13.3576 21.2949 12.6512 21.3714 12.0156C21.4299 11.5296 21.4218 11.5721 21.4221 11.528C21.4384 11.4708 21.4448 10.8569 21.4315 10.6289C21.3947 9.99857 21.3093 9.47519 21.1617 8.97533C21.0005 8.4296 20.8198 7.98292 20.5713 7.51568C20.4351 7.25962 20.3586 7.13303 20.1732 6.85707C19.588 5.98561 18.7933 5.22258 17.9063 4.68031C16.7863 3.99554 15.5403 3.62208 14.2147 3.57383L13.9883 3.5656V10.998V18.4303L14.09 18.4301C14.146 18.43 14.2951 18.4241 14.4214 18.417ZM13.9029 17.5661C13.8885 17.5602 13.8442 17.546 13.8045 17.5344C13.5952 17.4738 13.3313 17.2438 13.1409 16.9561C12.8864 16.5713 12.675 16.0469 12.5467 15.4818C12.4808 15.1915 12.4638 15.0506 12.4562 14.7319C12.4467 14.3295 12.4747 14.119 12.5647 13.9155C12.6421 13.7408 12.8293 13.5394 13.0115 13.435C13.2922 13.2741 13.3434 13.221 13.3548 13.0789C13.3604 13.0091 13.3532 12.9734 13.3007 12.8088C13.2209 12.5591 13.2213 12.55 13.3135 12.4642C13.4451 12.342 13.4556 12.2845 13.3634 12.1911C13.2934 12.1202 13.2894 12.13 13.4345 12.0189C13.4868 11.9789 13.5157 11.9472 13.5157 11.9302C13.5157 11.9156 13.4947 11.8498 13.4689 11.784C13.4432 11.7183 13.4122 11.6266 13.4 11.5804L13.378 11.4964L13.4108 11.4716C13.4288 11.4579 13.5056 11.4254 13.5814 11.3993C13.7371 11.3457 13.8045 11.2955 13.8045 11.233C13.8045 11.2127 13.7801 11.1476 13.7504 11.0885C13.7206 11.0294 13.6113 10.7671 13.5075 10.5056C13.3621 10.139 13.3188 10.0165 13.3188 9.9705C13.3188 9.93236 13.3351 9.87161 13.3639 9.8021C13.4457 9.60496 13.4559 9.54911 13.4557 9.30295C13.4555 9.09681 13.4517 9.06203 13.4056 8.83773C13.3374 8.50608 13.3197 8.33949 13.3193 8.02524C13.3189 7.71878 13.3323 7.61821 13.4112 7.33964C13.4804 7.09495 13.4922 7.02219 13.4916 6.84583C13.4909 6.68094 13.4644 6.52067 13.3989 6.28474C13.3481 6.10232 13.2883 5.8321 13.2576 5.64675C13.2242 5.44489 13.2243 5.05282 13.2577 4.9336C13.2952 4.79993 13.3477 4.71063 13.4414 4.62092C13.5371 4.5294 13.6223 4.48557 13.7771 4.44844L13.8767 4.42453L13.7389 4.43001C13.0826 4.45609 12.3516 4.59592 11.7634 4.80787C11.157 5.02638 10.5375 5.35832 10.0505 5.72564C9.52402 6.12274 9.13298 6.51161 8.75062 7.01823C8.28408 7.6364 7.97068 8.23109 7.73305 8.94912C7.5117 9.61796 7.38065 10.5017 7.40372 11.1704C7.42743 11.8584 7.52199 12.3971 7.73539 13.0599C8.12572 14.2724 8.91582 15.3908 9.94959 16.1942C10.9044 16.9362 12.0026 17.385 13.227 17.5335C13.5061 17.5673 13.9598 17.5892 13.9029 17.5661Z" fill="#FDFDFD" stroke="#FDFDFD" stroke-width="0.0262518"/>
<path d="M13.5672 18.4909C13.5642 18.4882 13.4968 18.4824 13.4173 18.478C13.2597 18.4693 13.1043 18.4533 12.9514 18.43C12.8972 18.4217 12.8204 18.4101 12.7807 18.4043C12.003 18.2892 11.0991 17.9764 10.3656 17.5685C9.71794 17.2084 9.22863 16.8382 8.69121 16.3016C8.15381 15.7651 7.78295 15.2765 7.42225 14.63C7.01369 13.8976 6.70038 12.9951 6.58513 12.2187C6.57925 12.179 6.56768 12.1024 6.55941 12.0483C6.51208 11.7389 6.5 11.5257 6.5 11C6.5 10.4742 6.51208 10.2611 6.55941 9.95159C6.56768 9.89755 6.57925 9.82086 6.58513 9.78123C6.70038 9.00478 7.01369 8.10232 7.42225 7.36998C8.10722 6.14211 9.13571 5.11528 10.3656 4.43142C11.0988 4.02368 12.0111 3.70804 12.7807 3.59581C12.8204 3.59002 12.915 3.57621 12.9907 3.56515C13.0665 3.55409 13.1729 3.5408 13.227 3.53564C13.2811 3.53047 13.3402 3.52471 13.3583 3.52282C13.3763 3.52093 13.5254 3.51501 13.6897 3.50966C13.6897 3.50966 13.9883 3.49994 13.9883 3.56557L14.2147 3.5738C15.431 3.61809 16.6145 3.94628 17.6373 4.52294C18.2813 4.88602 18.7819 5.26875 19.3027 5.79601C19.8234 6.32328 20.2308 6.87549 20.5713 7.51565C20.8199 7.98288 21.0006 8.42957 21.1617 8.9753C21.3094 9.47516 21.3948 9.99853 21.4316 10.6289C21.4588 11.0954 21.427 11.5532 21.3715 12.0156C21.295 12.6512 21.0938 13.3575 20.7996 14.0235C20.6169 14.4372 20.3097 14.9729 20.0575 15.3179C19.4012 16.2157 18.5936 16.9376 17.6504 17.4695C16.6354 18.042 15.5075 18.3644 14.3263 18.4199C14.3263 18.4199 13.9883 18.4358 13.9883 18.4958H13.7805C13.6662 18.4958 13.5702 18.4936 13.5672 18.4909ZM13.9883 10.9983V3.56628L13.7881 3.57492C13.1904 3.60071 12.7484 3.65856 12.2688 3.77372C11.2931 4.00806 10.3248 4.4635 9.53208 5.06094C8.99001 5.46949 8.45502 6.00133 8.05964 6.52473C7.67839 7.02947 7.31777 7.67503 7.07507 8.2873C6.56093 9.58445 6.43009 11.0548 6.70482 12.448C7.05655 14.2317 8.08589 15.849 9.53864 16.9416C10.3099 17.5217 11.2022 17.953 12.1179 18.1881C12.6855 18.3339 13.3105 18.4201 13.8603 18.4284L13.9883 18.4303V10.9983ZM14.4412 17.565C15.3137 17.5016 16.1316 17.2798 16.9109 16.8953C17.7278 16.4923 18.4764 15.9049 19.0499 15.2169C19.8592 14.2461 20.3483 13.1373 20.5236 11.8761C20.5688 11.5504 20.5815 11.2892 20.5734 10.851C20.563 10.2881 20.5167 9.93063 20.3869 9.41142C20.0386 8.0184 19.2436 6.77469 18.1295 5.88029C17.0865 5.04296 15.8855 4.56139 14.5593 4.4489C14.3193 4.42854 14.2205 4.42623 14.2254 4.44109C14.2277 4.4483 14.2595 4.46355 14.296 4.47495C14.544 4.55251 14.6922 4.72095 14.7443 4.98454C14.8009 5.2704 14.7283 5.80033 14.5391 6.48366C14.5254 6.53317 14.5073 6.63423 14.499 6.70825C14.4788 6.88749 14.496 7.02734 14.578 7.34922C14.6491 7.62822 14.6709 7.79431 14.6709 8.05797C14.6709 8.27111 14.6522 8.46513 14.6105 8.687C14.5384 9.06981 14.5235 9.20135 14.5309 9.38809C14.5386 9.5812 14.5542 9.64885 14.6254 9.79722C14.7007 9.95406 14.7008 9.95356 14.4802 10.501C14.3754 10.7612 14.2628 11.0313 14.2301 11.1013C14.1821 11.2038 14.173 11.2341 14.1835 11.2571C14.2049 11.3039 14.2765 11.3478 14.406 11.3935C14.5566 11.4466 14.5921 11.4724 14.592 11.5284C14.592 11.5513 14.5651 11.6467 14.5324 11.7404C14.499 11.8358 14.4759 11.9229 14.4797 11.9385C14.4836 11.9537 14.5252 11.9999 14.5722 12.0411C14.6758 12.1319 14.6813 12.1603 14.6052 12.2106C14.5182 12.2681 14.5371 12.3389 14.6704 12.4541C14.714 12.4919 14.7532 12.5361 14.7572 12.5522C14.7616 12.5696 14.7397 12.6576 14.704 12.7666C14.6341 12.9804 14.6214 13.0597 14.6441 13.1409C14.6691 13.2299 14.7254 13.2857 14.8849 13.3796C15.1286 13.5232 15.2304 13.6171 15.3643 13.8219C15.4395 13.9369 15.4774 14.029 15.5083 14.1713C15.5396 14.3161 15.5384 14.9315 15.5064 15.141C15.3904 15.9003 15.0986 16.6416 14.73 17.1133C14.55 17.3437 14.3721 17.4773 14.1524 17.5472L14.0605 17.5764L14.159 17.5774C14.2131 17.5779 14.3401 17.5724 14.4412 17.565Z" fill="black" stroke="black" stroke-width="0.0262518"/>
<path d="M14.1524 17.5472C14.3722 17.4774 14.55 17.3438 14.7301 17.1134C15.0986 16.6417 15.3904 15.9004 15.5065 15.1411C15.5385 14.9316 15.5396 14.3162 15.5083 14.1714C15.4775 14.0291 15.4395 13.937 15.3643 13.8219C15.2305 13.6172 15.1287 13.5233 14.8849 13.3797C14.7255 13.2858 14.6691 13.2299 14.6442 13.141C14.6214 13.0598 14.6341 12.9805 14.7041 12.7667C14.7398 12.6577 14.7616 12.5696 14.7572 12.5523C14.7532 12.5362 14.7141 12.492 14.6704 12.4542C14.5371 12.339 14.5182 12.2682 14.6053 12.2107C14.6814 12.1604 14.6758 12.132 14.5722 12.0412C14.5252 12 14.4836 11.9538 14.4798 11.9385C14.4759 11.923 14.499 11.8359 14.5324 11.7405C14.5652 11.6468 14.592 11.5514 14.5921 11.5285C14.5922 11.4725 14.5566 11.4467 14.406 11.3936C14.2765 11.3479 14.205 11.304 14.1836 11.2571C14.1731 11.2341 14.1821 11.2039 14.2301 11.1014C14.2628 11.0314 14.3754 10.7613 14.4803 10.501C14.7008 9.95364 14.7007 9.95414 14.6255 9.7973C14.5542 9.64893 14.5386 9.58128 14.5309 9.38817C14.5235 9.20143 14.5384 9.06989 14.6105 8.68708C14.6523 8.46521 14.6709 8.27119 14.6709 8.05805C14.6709 7.79439 14.6492 7.6283 14.5781 7.3493C14.4961 7.02742 14.4788 6.88757 14.499 6.70833C14.5074 6.63431 14.5254 6.53325 14.5391 6.48374C14.7284 5.80041 14.8009 5.27048 14.7444 4.98462C14.6922 4.72103 14.5441 4.55259 14.2961 4.47503C14.1991 4.44471 14.2052 4.42741 14.3115 4.43184C14.4459 4.43745 14.697 4.45983 14.8678 4.48143C16.7278 4.71658 18.4174 5.77168 19.4862 7.36539C19.9974 8.12782 20.3595 9.05922 20.5048 9.98556C20.5707 10.4055 20.5967 11.0442 20.5654 11.4735C20.4939 12.455 20.2055 13.4097 19.73 14.2391C19.1609 15.2319 18.3571 16.0543 17.3891 16.6343C16.486 17.1755 15.4945 17.4886 14.4412 17.5651C14.3401 17.5725 14.2131 17.578 14.159 17.5775L14.0605 17.5764L14.1524 17.5472Z" fill="#FDFDFD" stroke="#FDFDFD" stroke-width="0.0262518"/>
<path d="M13.575 17.5648C12.961 17.5295 12.2897 17.3868 11.6848 17.163C10.5409 16.7397 9.52986 15.9923 8.76596 15.0054C8.0102 14.029 7.53352 12.807 7.42592 11.5701C7.40085 11.2821 7.39502 10.9354 7.41106 10.6855C7.48984 9.45732 7.84539 8.35976 8.47179 7.4114C8.92253 6.72896 9.40882 6.20978 10.0507 5.72567C10.5376 5.35835 11.1572 5.0264 11.7636 4.8079C12.3518 4.59594 13.0828 4.45612 13.739 4.43004L13.8769 4.42456L13.7773 4.44846C13.6225 4.4856 13.5372 4.52942 13.4416 4.62095C13.3479 4.71066 13.2954 4.79996 13.2579 4.93362C13.2244 5.05285 13.2244 5.44491 13.2578 5.64678C13.2885 5.83213 13.3483 6.10235 13.399 6.28477C13.4646 6.5207 13.4911 6.68097 13.4917 6.84585C13.4924 7.02222 13.4806 7.09497 13.4113 7.33966C13.3325 7.61824 13.319 7.71881 13.3195 8.02527C13.3199 8.33952 13.3376 8.50611 13.4058 8.83776C13.4519 9.06206 13.4556 9.09684 13.4558 9.30298C13.4561 9.54913 13.4458 9.60499 13.3641 9.80213C13.3353 9.87164 13.319 9.93239 13.319 9.97053C13.319 10.0165 13.3622 10.139 13.5077 10.5056C13.6115 10.7671 13.7208 11.0294 13.7505 11.0885C13.7803 11.1476 13.8047 11.2127 13.8047 11.2331C13.8047 11.2955 13.7373 11.3457 13.5815 11.3993C13.5057 11.4254 13.429 11.4579 13.4109 11.4716L13.3781 11.4965L13.4002 11.5805C13.4123 11.6267 13.4433 11.7183 13.4691 11.7841C13.4948 11.8499 13.5159 11.9156 13.5159 11.9302C13.5159 11.9472 13.4869 11.9789 13.4346 12.0189C13.2896 12.13 13.2936 12.1202 13.3636 12.1911C13.4557 12.2845 13.4452 12.342 13.3137 12.4643C13.2214 12.55 13.2211 12.5592 13.3009 12.8088C13.3534 12.9735 13.3605 13.0091 13.355 13.0789C13.3436 13.221 13.2924 13.2741 13.0116 13.435C12.8294 13.5394 12.6422 13.7408 12.5649 13.9155C12.4749 14.1191 12.4469 14.3295 12.4564 14.7319C12.4661 15.1413 12.5115 15.4073 12.6511 15.872C12.9153 16.7517 13.3714 17.409 13.8047 17.5345C13.9648 17.5809 13.9312 17.5853 13.575 17.5648Z" fill="black" stroke="black" stroke-width="0.0262518"/>
<path d="M0 22C0 19.7909 1.79086 18 4 18H24C26.2091 18 28 19.7909 28 22V27C28 29.2091 26.2091 31 24 31H4C1.79086 31 0 29.2091 0 27V22Z" fill="black"/>
<path d="M5.7207 22.0234C5.71745 22.5801 5.80046 23.1172 5.96973 23.6348C6.139 24.1523 6.3929 24.613 6.73145 25.0166C7.06999 25.4202 7.48177 25.7246 7.9668 25.9297L7.23438 26.9258C6.73958 26.7012 6.31315 26.3789 5.95508 25.959C5.60026 25.5391 5.31868 25.0459 5.11035 24.4795C4.90527 25.098 4.61719 25.6367 4.24609 26.0957C3.875 26.5514 3.42578 26.8997 2.89844 27.1406L2.14648 26.1055C2.64779 25.8939 3.07096 25.5798 3.41602 25.1631C3.76432 24.7432 4.02474 24.263 4.19727 23.7227C4.36979 23.179 4.45768 22.6126 4.46094 22.0234V20.6953H5.7207V22.0234ZM8.44531 20.0117H9.70508V28.918H8.44531V20.0117ZM18.2793 21.418H15.8281C15.8802 21.6751 16.0202 21.9209 16.248 22.1553C16.4759 22.3864 16.7933 22.5866 17.2002 22.7559C17.6071 22.9219 18.0905 23.0358 18.6504 23.0977L18.1914 24.084C17.3809 23.9896 16.6973 23.7829 16.1406 23.4639C15.5872 23.1449 15.1901 22.7461 14.9492 22.2676C14.7083 22.7461 14.3112 23.1449 13.7578 23.4639C13.2077 23.7829 12.5273 23.9896 11.7168 24.084L11.2676 23.0977C11.8275 23.0358 12.3092 22.9202 12.7129 22.751C13.1198 22.5817 13.4355 22.3815 13.6602 22.1504C13.888 21.9193 14.028 21.6751 14.0801 21.418H11.6484V20.4219H18.2793V21.418ZM10.9062 24.543H19.0117V25.5391H10.9062V24.543ZM11.8828 26.1152H13.1328V27.7461H18.0938V28.7422H11.8828V26.1152ZM19.832 26.9355L22.3711 24.6016C22.6217 24.3607 22.8154 24.1621 22.9521 24.0059C23.0921 23.8464 23.1995 23.6885 23.2744 23.5322C23.3493 23.3727 23.3867 23.2018 23.3867 23.0195C23.3867 22.8145 23.3379 22.6354 23.2402 22.4824C23.1458 22.3262 23.0124 22.2074 22.8398 22.126C22.6706 22.0446 22.4785 22.0039 22.2637 22.0039C21.9284 22.0007 21.6615 22.0983 21.4629 22.2969C21.2643 22.4922 21.1667 22.7591 21.1699 23.0977H19.7734C19.7734 22.6452 19.8776 22.248 20.0859 21.9062C20.2975 21.5612 20.5921 21.2959 20.9697 21.1104C21.3506 20.9248 21.7884 20.832 22.2832 20.832C22.7812 20.832 23.2207 20.9215 23.6016 21.1006C23.9824 21.2764 24.277 21.5221 24.4854 21.8379C24.6969 22.1536 24.8027 22.515 24.8027 22.9219C24.8027 23.2018 24.749 23.4704 24.6416 23.7275C24.5342 23.9814 24.347 24.2646 24.0801 24.5771C23.8164 24.8896 23.4421 25.2656 22.957 25.7051L21.8828 26.75V26.7891H24.9004V28H19.8418L19.832 26.9355Z" fill="white"/>
</svg>
