<svg width="26" height="31" viewBox="0 0 26 31" fill="none" xmlns="http://www.w3.org/2000/svg">
<path d="M3 11C3 5.47715 7.47715 1 13 1C18.5228 1 23 5.47715 23 11C23 16.5228 18.5228 21 13 21C7.47715 21 3 16.5228 3 11Z" fill="black" stroke="black" stroke-width="1.5"/>
<path d="M12.9883 18.4678V18.4356L12.6765 18.4201C10.9791 18.3357 9.4951 17.7553 8.19094 16.666C7.98111 16.4907 7.58243 16.0967 7.3838 15.8684C6.99276 15.4188 6.62964 14.8789 6.36581 14.3548C5.62717 12.8874 5.39573 11.2993 5.68311 9.66988C5.81072 8.94629 6.03386 8.29344 6.39012 7.60123C6.80199 6.80098 7.28457 6.16556 7.94693 5.55138C8.98411 4.58965 10.2879 3.93882 11.6787 3.68855C12.0235 3.62649 12.3366 3.59443 12.7881 3.57496C12.7881 3.57496 12.9883 3.56631 12.9883 3.5L13.3 3.50962C13.4715 3.51491 13.6265 3.52084 13.6446 3.52275C13.6626 3.52469 13.7217 3.53051 13.7758 3.53567C13.83 3.54083 13.9363 3.55412 14.0121 3.56518C14.0879 3.57624 14.1824 3.59006 14.2221 3.59585C14.9917 3.70808 15.904 4.02371 16.6373 4.43145C17.2849 4.79157 17.7742 5.16183 18.3116 5.69836C18.8491 6.23491 19.2199 6.72343 19.5806 7.37001C19.9891 8.10235 20.3024 9.00482 20.4177 9.78127C20.4236 9.8209 20.4352 9.89758 20.4434 9.95163C20.4653 10.0948 20.4823 10.253 20.4932 10.4168C20.5027 10.5596 20.502 11.579 20.4923 11.6421C20.4895 11.6602 20.483 11.7191 20.4778 11.7732C20.4726 11.8272 20.4593 11.9334 20.4482 12.0091C20.4372 12.0848 20.4233 12.1791 20.4175 12.2187C20.3051 12.9871 19.989 13.8979 19.5806 14.63C19.2199 15.2765 18.8491 15.7651 18.3116 16.3016C17.7742 16.8382 17.2849 17.2084 16.6373 17.5685C15.904 17.9763 14.9917 18.2919 14.2221 18.4042C14.1824 18.4099 14.0879 18.4238 14.0121 18.4348C13.9363 18.4459 13.83 18.4592 13.7758 18.4643C13.7217 18.4695 13.6626 18.4753 13.6446 18.4772C13.6265 18.4792 13.4715 18.4851 13.3 18.4904L12.9883 18.5V18.4678ZM13.4214 18.417C14.1188 18.3776 14.8766 18.2216 15.5343 17.9819C16.9499 17.4662 18.1509 16.5581 19.0575 15.318C19.3097 14.9729 19.6168 14.4372 19.7996 14.0235C20.0938 13.3576 20.2949 12.6512 20.3714 12.0156C20.4299 11.5296 20.4218 11.5721 20.4221 11.528C20.4384 11.4708 20.4448 10.8569 20.4315 10.6289C20.3947 9.99857 20.3093 9.47519 20.1617 8.97533C20.0005 8.4296 19.8198 7.98292 19.5713 7.51568C19.4351 7.25962 19.3586 7.13303 19.1732 6.85707C18.588 5.98561 17.7933 5.22258 16.9063 4.68031C15.7863 3.99554 14.5403 3.62208 13.2147 3.57383L12.9883 3.5656V10.998V18.4303L13.09 18.4301C13.146 18.43 13.2951 18.4241 13.4214 18.417ZM12.9029 17.5661C12.8885 17.5602 12.8442 17.546 12.8045 17.5344C12.5952 17.4738 12.3313 17.2438 12.1409 16.9561C11.8864 16.5713 11.675 16.0469 11.5467 15.4818C11.4808 15.1915 11.4638 15.0506 11.4562 14.7319C11.4467 14.3295 11.4747 14.119 11.5647 13.9155C11.6421 13.7408 11.8293 13.5394 12.0115 13.435C12.2922 13.2741 12.3434 13.221 12.3548 13.0789C12.3604 13.0091 12.3532 12.9734 12.3007 12.8088C12.2209 12.5591 12.2213 12.55 12.3135 12.4642C12.4451 12.342 12.4556 12.2845 12.3634 12.1911C12.2934 12.1202 12.2894 12.13 12.4345 12.0189C12.4868 11.9789 12.5157 11.9472 12.5157 11.9302C12.5157 11.9156 12.4947 11.8498 12.4689 11.784C12.4432 11.7183 12.4122 11.6266 12.4 11.5804L12.378 11.4964L12.4108 11.4716C12.4288 11.4579 12.5056 11.4254 12.5814 11.3993C12.7371 11.3457 12.8045 11.2955 12.8045 11.233C12.8045 11.2127 12.7801 11.1476 12.7504 11.0885C12.7206 11.0294 12.6113 10.7671 12.5075 10.5056C12.3621 10.139 12.3188 10.0165 12.3188 9.9705C12.3188 9.93236 12.3351 9.87161 12.3639 9.8021C12.4457 9.60496 12.4559 9.54911 12.4557 9.30295C12.4555 9.09681 12.4517 9.06203 12.4056 8.83773C12.3374 8.50608 12.3197 8.33949 12.3193 8.02524C12.3189 7.71878 12.3323 7.61821 12.4112 7.33964C12.4804 7.09495 12.4922 7.02219 12.4916 6.84583C12.4909 6.68094 12.4644 6.52067 12.3989 6.28474C12.3481 6.10232 12.2883 5.8321 12.2576 5.64675C12.2242 5.44489 12.2243 5.05282 12.2577 4.9336C12.2952 4.79993 12.3477 4.71063 12.4414 4.62092C12.5371 4.5294 12.6223 4.48557 12.7771 4.44844L12.8767 4.42453L12.7389 4.43001C12.0826 4.45609 11.3516 4.59592 10.7634 4.80787C10.157 5.02638 9.53747 5.35832 9.0505 5.72564C8.52402 6.12274 8.13298 6.51161 7.75062 7.01823C7.28408 7.6364 6.97068 8.23109 6.73305 8.94912C6.5117 9.61796 6.38065 10.5017 6.40372 11.1704C6.42743 11.8584 6.52199 12.3971 6.73539 13.0599C7.12572 14.2724 7.91582 15.3908 8.94959 16.1942C9.90439 16.9362 11.0026 17.385 12.227 17.5335C12.5061 17.5673 12.9598 17.5892 12.9029 17.5661Z" fill="#FDFDFD" stroke="#FDFDFD" stroke-width="0.0262518"/>
<path d="M12.5672 18.4909C12.5642 18.4882 12.4968 18.4824 12.4173 18.478C12.2597 18.4693 12.1043 18.4533 11.9514 18.43C11.8972 18.4217 11.8204 18.4101 11.7807 18.4043C11.003 18.2892 10.0991 17.9764 9.36557 17.5685C8.71794 17.2084 8.22863 16.8382 7.69121 16.3016C7.15381 15.7651 6.78295 15.2765 6.42225 14.63C6.01369 13.8976 5.70038 12.9951 5.58513 12.2187C5.57925 12.179 5.56768 12.1024 5.55941 12.0483C5.51208 11.7389 5.5 11.5257 5.5 11C5.5 10.4742 5.51208 10.2611 5.55941 9.95159C5.56768 9.89755 5.57925 9.82086 5.58513 9.78123C5.70038 9.00478 6.01369 8.10232 6.42225 7.36998C7.10722 6.14211 8.13571 5.11528 9.36557 4.43142C10.0988 4.02368 11.0111 3.70804 11.7807 3.59581C11.8204 3.59002 11.915 3.57621 11.9907 3.56515C12.0665 3.55409 12.1729 3.5408 12.227 3.53564C12.2811 3.53047 12.3402 3.52471 12.3583 3.52282C12.3763 3.52093 12.5254 3.51501 12.6897 3.50966C12.6897 3.50966 12.9883 3.49994 12.9883 3.56557L13.2147 3.5738C14.431 3.61809 15.6145 3.94628 16.6373 4.52294C17.2813 4.88602 17.7819 5.26875 18.3027 5.79601C18.8234 6.32328 19.2308 6.87549 19.5713 7.51565C19.8199 7.98288 20.0006 8.42957 20.1617 8.9753C20.3094 9.47516 20.3948 9.99853 20.4316 10.6289C20.4588 11.0954 20.427 11.5532 20.3715 12.0156C20.295 12.6512 20.0938 13.3575 19.7996 14.0235C19.6169 14.4372 19.3097 14.9729 19.0575 15.3179C18.4012 16.2157 17.5936 16.9376 16.6504 17.4695C15.6354 18.042 14.5075 18.3644 13.3263 18.4199C13.3263 18.4199 12.9883 18.4358 12.9883 18.4958H12.7805C12.6662 18.4958 12.5702 18.4936 12.5672 18.4909ZM12.9883 10.9983V3.56628L12.7881 3.57492C12.1904 3.60071 11.7484 3.65856 11.2688 3.77372C10.2931 4.00806 9.3248 4.4635 8.53208 5.06094C7.99001 5.46949 7.45502 6.00133 7.05964 6.52473C6.67839 7.02947 6.31777 7.67503 6.07507 8.2873C5.56093 9.58445 5.43009 11.0548 5.70482 12.448C6.05655 14.2317 7.08589 15.849 8.53864 16.9416C9.30987 17.5217 10.2022 17.953 11.1179 18.1881C11.6855 18.3339 12.3105 18.4201 12.8603 18.4284L12.9883 18.4303V10.9983ZM13.4412 17.565C14.3137 17.5016 15.1316 17.2798 15.9109 16.8953C16.7278 16.4923 17.4764 15.9049 18.0499 15.2169C18.8592 14.2461 19.3483 13.1373 19.5236 11.8761C19.5688 11.5504 19.5815 11.2892 19.5734 10.851C19.563 10.2881 19.5167 9.93063 19.3869 9.41142C19.0386 8.0184 18.2436 6.77469 17.1295 5.88029C16.0865 5.04296 14.8855 4.56139 13.5593 4.4489C13.3193 4.42854 13.2205 4.42623 13.2254 4.44109C13.2277 4.4483 13.2595 4.46355 13.296 4.47495C13.544 4.55251 13.6922 4.72095 13.7443 4.98454C13.8009 5.2704 13.7283 5.80033 13.5391 6.48366C13.5254 6.53317 13.5073 6.63423 13.499 6.70825C13.4788 6.88749 13.496 7.02734 13.578 7.34922C13.6491 7.62822 13.6709 7.79431 13.6709 8.05797C13.6709 8.27111 13.6522 8.46513 13.6105 8.687C13.5384 9.06981 13.5235 9.20135 13.5309 9.38809C13.5386 9.5812 13.5542 9.64885 13.6254 9.79722C13.7007 9.95406 13.7008 9.95356 13.4802 10.501C13.3754 10.7612 13.2628 11.0313 13.2301 11.1013C13.1821 11.2038 13.173 11.2341 13.1835 11.2571C13.2049 11.3039 13.2765 11.3478 13.406 11.3935C13.5566 11.4466 13.5921 11.4724 13.592 11.5284C13.592 11.5513 13.5651 11.6467 13.5324 11.7404C13.499 11.8358 13.4759 11.9229 13.4797 11.9385C13.4836 11.9537 13.5252 11.9999 13.5722 12.0411C13.6758 12.1319 13.6813 12.1603 13.6052 12.2106C13.5182 12.2681 13.5371 12.3389 13.6704 12.4541C13.714 12.4919 13.7532 12.5361 13.7572 12.5522C13.7616 12.5696 13.7397 12.6576 13.704 12.7666C13.6341 12.9804 13.6214 13.0597 13.6441 13.1409C13.6691 13.2299 13.7254 13.2857 13.8849 13.3796C14.1286 13.5232 14.2304 13.6171 14.3643 13.8219C14.4395 13.9369 14.4774 14.029 14.5083 14.1713C14.5396 14.3161 14.5384 14.9315 14.5064 15.141C14.3904 15.9003 14.0986 16.6416 13.73 17.1133C13.55 17.3437 13.3721 17.4773 13.1524 17.5472L13.0605 17.5764L13.159 17.5774C13.2131 17.5779 13.3401 17.5724 13.4412 17.565Z" fill="black" stroke="black" stroke-width="0.0262518"/>
<path d="M13.1524 17.5472C13.3722 17.4774 13.55 17.3438 13.7301 17.1134C14.0986 16.6417 14.3904 15.9004 14.5065 15.1411C14.5385 14.9316 14.5396 14.3162 14.5083 14.1714C14.4775 14.0291 14.4395 13.937 14.3643 13.8219C14.2305 13.6172 14.1287 13.5233 13.8849 13.3797C13.7255 13.2858 13.6691 13.2299 13.6442 13.141C13.6214 13.0598 13.6341 12.9805 13.7041 12.7667C13.7398 12.6577 13.7616 12.5696 13.7572 12.5523C13.7532 12.5362 13.7141 12.492 13.6704 12.4542C13.5371 12.339 13.5182 12.2682 13.6053 12.2107C13.6814 12.1604 13.6758 12.132 13.5722 12.0412C13.5252 12 13.4836 11.9538 13.4798 11.9385C13.4759 11.923 13.499 11.8359 13.5324 11.7405C13.5652 11.6468 13.592 11.5514 13.5921 11.5285C13.5922 11.4725 13.5566 11.4467 13.406 11.3936C13.2765 11.3479 13.205 11.304 13.1836 11.2571C13.1731 11.2341 13.1821 11.2039 13.2301 11.1014C13.2628 11.0314 13.3754 10.7613 13.4803 10.501C13.7008 9.95364 13.7007 9.95414 13.6255 9.7973C13.5542 9.64893 13.5386 9.58128 13.5309 9.38817C13.5235 9.20143 13.5384 9.06989 13.6105 8.68708C13.6523 8.46521 13.6709 8.27119 13.6709 8.05805C13.6709 7.79439 13.6492 7.6283 13.5781 7.3493C13.4961 7.02742 13.4788 6.88757 13.499 6.70833C13.5074 6.63431 13.5254 6.53325 13.5391 6.48374C13.7284 5.80041 13.8009 5.27048 13.7444 4.98462C13.6922 4.72103 13.5441 4.55259 13.2961 4.47503C13.1991 4.44471 13.2052 4.42741 13.3115 4.43184C13.4459 4.43745 13.697 4.45983 13.8678 4.48143C15.7278 4.71658 17.4174 5.77168 18.4862 7.36539C18.9974 8.12782 19.3595 9.05922 19.5048 9.98556C19.5707 10.4055 19.5967 11.0442 19.5654 11.4735C19.4939 12.455 19.2055 13.4097 18.73 14.2391C18.1609 15.2319 17.3571 16.0543 16.3891 16.6343C15.486 17.1755 14.4945 17.4886 13.4412 17.5651C13.3401 17.5725 13.2131 17.578 13.159 17.5775L13.0605 17.5764L13.1524 17.5472Z" fill="#FDFDFD" stroke="#FDFDFD" stroke-width="0.0262518"/>
<path d="M12.575 17.5648C11.961 17.5295 11.2897 17.3868 10.6848 17.163C9.54095 16.7397 8.52986 15.9923 7.76596 15.0054C7.0102 14.029 6.53352 12.807 6.42592 11.5701C6.40085 11.2821 6.39502 10.9354 6.41106 10.6855C6.48984 9.45732 6.84539 8.35976 7.47179 7.4114C7.92253 6.72896 8.40882 6.20978 9.05067 5.72567C9.53764 5.35835 10.1572 5.0264 10.7636 4.8079C11.3518 4.59594 12.0828 4.45612 12.739 4.43004L12.8769 4.42456L12.7773 4.44846C12.6225 4.4856 12.5372 4.52942 12.4416 4.62095C12.3479 4.71066 12.2954 4.79996 12.2579 4.93362C12.2244 5.05285 12.2244 5.44491 12.2578 5.64678C12.2885 5.83213 12.3483 6.10235 12.399 6.28477C12.4646 6.5207 12.4911 6.68097 12.4917 6.84585C12.4924 7.02222 12.4806 7.09497 12.4113 7.33966C12.3325 7.61824 12.319 7.71881 12.3195 8.02527C12.3199 8.33952 12.3376 8.50611 12.4058 8.83776C12.4519 9.06206 12.4556 9.09684 12.4558 9.30298C12.4561 9.54913 12.4458 9.60499 12.3641 9.80213C12.3353 9.87164 12.319 9.93239 12.319 9.97053C12.319 10.0165 12.3622 10.139 12.5077 10.5056C12.6115 10.7671 12.7208 11.0294 12.7505 11.0885C12.7803 11.1476 12.8047 11.2127 12.8047 11.2331C12.8047 11.2955 12.7373 11.3457 12.5815 11.3993C12.5057 11.4254 12.429 11.4579 12.4109 11.4716L12.3781 11.4965L12.4002 11.5805C12.4123 11.6267 12.4433 11.7183 12.4691 11.7841C12.4948 11.8499 12.5159 11.9156 12.5159 11.9302C12.5159 11.9472 12.4869 11.9789 12.4346 12.0189C12.2896 12.13 12.2936 12.1202 12.3636 12.1911C12.4557 12.2845 12.4452 12.342 12.3137 12.4643C12.2214 12.55 12.2211 12.5592 12.3009 12.8088C12.3534 12.9735 12.3605 13.0091 12.355 13.0789C12.3436 13.221 12.2924 13.2741 12.0116 13.435C11.8294 13.5394 11.6422 13.7408 11.5649 13.9155C11.4749 14.1191 11.4469 14.3295 11.4564 14.7319C11.4661 15.1413 11.5115 15.4073 11.6511 15.872C11.9153 16.7517 12.3714 17.409 12.8047 17.5345C12.9648 17.5809 12.9312 17.5853 12.575 17.5648Z" fill="black" stroke="black" stroke-width="0.0262518"/>
<path d="M0 22C0 19.7909 1.79086 18 4 18H22C24.2091 18 26 19.7909 26 22V27C26 29.2091 24.2091 31 22 31H4C1.79086 31 0 29.2091 0 27V22Z" fill="black"/>
<path d="M5.7207 22.0234C5.71745 22.5801 5.80046 23.1172 5.96973 23.6348C6.139 24.1523 6.3929 24.613 6.73145 25.0166C7.06999 25.4202 7.48177 25.7246 7.9668 25.9297L7.23438 26.9258C6.73958 26.7012 6.31315 26.3789 5.95508 25.959C5.60026 25.5391 5.31868 25.0459 5.11035 24.4795C4.90527 25.098 4.61719 25.6367 4.24609 26.0957C3.875 26.5514 3.42578 26.8997 2.89844 27.1406L2.14648 26.1055C2.64779 25.8939 3.07096 25.5798 3.41602 25.1631C3.76432 24.7432 4.02474 24.263 4.19727 23.7227C4.36979 23.179 4.45768 22.6126 4.46094 22.0234V20.6953H5.7207V22.0234ZM8.44531 20.0117H9.70508V28.918H8.44531V20.0117ZM18.2793 21.418H15.8281C15.8802 21.6751 16.0202 21.9209 16.248 22.1553C16.4759 22.3864 16.7933 22.5866 17.2002 22.7559C17.6071 22.9219 18.0905 23.0358 18.6504 23.0977L18.1914 24.084C17.3809 23.9896 16.6973 23.7829 16.1406 23.4639C15.5872 23.1449 15.1901 22.7461 14.9492 22.2676C14.7083 22.7461 14.3112 23.1449 13.7578 23.4639C13.2077 23.7829 12.5273 23.9896 11.7168 24.084L11.2676 23.0977C11.8275 23.0358 12.3092 22.9202 12.7129 22.751C13.1198 22.5817 13.4355 22.3815 13.6602 22.1504C13.888 21.9193 14.028 21.6751 14.0801 21.418H11.6484V20.4219H18.2793V21.418ZM10.9062 24.543H19.0117V25.5391H10.9062V24.543ZM11.8828 26.1152H13.1328V27.7461H18.0938V28.7422H11.8828V26.1152ZM22.8887 28H21.4141V22.3262H21.375L19.7539 23.3418V22.043L21.502 20.9297H22.8887V28Z" fill="white"/>
</svg>
